<svg width="45" height="45" viewBox="0 0 45 45" fill="none" xmlns="http://www.w3.org/2000/svg">
<mask id="mask0_411_16" style="mask-type:alpha" maskUnits="userSpaceOnUse" x="0" y="0" width="45" height="45">
<rect width="45" height="45" fill="#D9D9D9"/>
</mask>
<g mask="url(#mask0_411_16)">
<path d="M22.5 21.9229C20.6953 21.9229 19.1505 21.2804 17.8655 19.9954C16.5802 18.71 15.9375 17.165 15.9375 15.3604C15.9375 13.5557 16.5802 12.0108 17.8655 10.7258C19.1505 9.44051 20.6953 8.79785 22.5 8.79785C24.3047 8.79785 25.8495 9.44051 27.1345 10.7258C28.4198 12.0108 29.0625 13.5557 29.0625 15.3604C29.0625 17.165 28.4198 18.71 27.1345 19.9954C25.8495 21.2804 24.3047 21.9229 22.5 21.9229ZM8.4375 36.2019V32.0333C8.4375 31.1152 8.68688 30.2649 9.18563 29.4824C9.68438 28.6999 10.3509 28.0983 11.1853 27.6777C13.0384 26.7693 14.908 26.0879 16.7939 25.6335C18.6798 25.1791 20.5819 24.9519 22.5 24.9519C24.4181 24.9519 26.3202 25.1791 28.2061 25.6335C30.092 26.0879 31.9616 26.7693 33.8147 27.6777C34.6491 28.0983 35.3156 28.6999 35.8144 29.4824C36.3131 30.2649 36.5625 31.1152 36.5625 32.0333V36.2019H8.4375Z" fill="white"/>
</g>
</svg>
