<svg width="1688" height="1071" viewBox="0 0 1688 1071" fill="none" xmlns="http://www.w3.org/2000/svg">
<path d="M156.328 196.752C137.828 204.752 182.912 258.244 210.828 289.752C240.637 323.397 264.687 335.287 303.328 358.252C362.458 393.394 400.025 407.365 466.828 423.752C509.982 434.338 532.328 440.752 579.328 440.752C626.328 440.752 657.328 433.752 679.828 404.252C702.328 374.752 707.592 352.352 708.828 315.752C710.258 273.418 689.983 250.759 671.828 212.752C654.632 176.752 625.511 144.252 618.828 127.252C613.518 113.745 606.14 103.25 606.828 88.7523C608.082 62.3494 628.289 50.7083 651.328 37.7523C672.024 26.1143 687.098 24.4568 710.828 25.2523C740.143 26.2349 757.612 33.202 781.828 49.7523C805.959 66.2437 816.184 81.175 830.328 106.752C841.865 127.615 847.046 140.787 849.5 164.5C850.565 174.794 851 182.5 849.5 191C848 199.5 836.5 220 818.828 225.252C801.157 230.504 759.828 212.752 759.828 212.752C759.828 212.752 726.157 194.504 719.328 202.252C712.5 210 728.233 226.206 750.678 237.179L750.828 237.252C773.328 248.252 786.328 251.752 811.328 251.252C836.328 250.752 858.328 227.679 863.828 209.252C869.328 190.826 869.5 164 866 140.5C862.5 117 845.9 84.2776 822.328 56.7522C801.752 32.7255 789.741 17.8378 757.828 7.7522C740.318 2.21836 729.183 0.845435 710.828 0.252251C687.444 -0.503489 673.53 -0.141901 652.328 9.7522C629.828 20.2524 604.099 31.284 591.328 61.2523C586.909 71.6212 583.63 77.4851 583.328 88.7523C582.91 104.383 584.259 113.305 591.328 127.252C609.828 163.752 633.214 184.196 651.328 225.252C666.285 259.153 680.403 278.703 679.828 315.752C679.39 344.024 678.328 363.752 661.328 385.752C644.328 407.752 618.328 416.752 579.328 417.252C540.328 417.752 497.223 407.149 446.828 391.752C375.582 369.984 335.656 352.262 274.828 309.252C251.024 292.421 239.328 285.752 216.828 262.252C194.328 238.752 174.828 188.752 156.328 196.752Z" fill="white"/>
<path fill-rule="evenodd" clip-rule="evenodd" d="M0.716855 1070.75C-16.2832 1061.51 274.717 458.752 274.717 458.752C274.717 458.752 287.613 397.722 302.217 360.752C319.003 318.256 330.717 294.752 357.717 257.752C384.717 220.752 391.217 216.752 397.717 215.752C404.217 214.752 419.217 213.752 421.217 228.252C423.217 242.752 422.717 264.752 418.217 283.752C413.717 302.752 400.958 331.551 386.717 360.752C363.255 408.861 313.717 476.752 313.717 476.752C313.717 476.752 17.7169 1079.99 0.716855 1070.75ZM361.217 353.252C354.717 353.752 344.217 351.252 338.717 343.752C333.217 336.252 352.757 308.64 366.217 288.752L366.441 288.42C376.391 273.719 391.247 251.767 395.217 253.752C399.217 255.752 391.375 284.517 385.217 303.252C378.453 323.828 367.717 352.752 361.217 353.252ZM348.717 382.252C347.717 377.252 337.717 370.252 330.217 369.752C322.717 369.252 289.217 451.752 302.217 452.252C315.217 452.752 349.717 387.252 348.717 382.252Z" fill="white"/>
<path d="M420.623 764.568C421.307 762.176 421.933 759.214 422.503 755.682C423.187 752.15 423.756 747.763 424.212 742.522C424.668 737.282 425.009 731.072 425.237 723.895C425.465 716.603 425.579 708.115 425.579 698.431V587.176C425.579 577.492 425.465 569.061 425.237 561.883C425.009 554.591 424.668 548.325 424.212 543.084C423.756 537.729 423.187 533.286 422.503 529.754C421.933 526.222 421.307 523.26 420.623 520.867V520.184H461.639V520.867C460.955 523.26 460.271 526.222 459.588 529.754C459.018 533.286 458.506 537.729 458.05 543.084C457.708 548.325 457.366 554.591 457.024 561.883C456.797 569.061 456.683 577.492 456.683 587.176V625.286L556.487 543.768C567.653 534.653 573.235 526.792 573.235 520.184H621.258V520.867C614.536 522.462 607.7 525.538 600.75 530.096C593.914 534.539 586.622 540.008 578.875 546.502L490.691 620.33L596.819 736.883C601.263 741.44 605.022 745.257 608.099 748.333C611.289 751.295 614.08 753.802 616.473 755.853C618.865 757.789 621.03 759.441 622.967 760.809C625.018 762.062 627.125 763.315 629.29 764.568V765.252H579.217C578.761 764.227 577.964 762.916 576.824 761.321C575.799 759.726 574.546 758.074 573.064 756.365C571.697 754.656 570.159 752.89 568.45 751.067C566.855 749.244 565.317 747.535 563.836 745.94L456.683 628.362V698.431C456.683 708.115 456.797 716.603 457.024 723.895C457.366 731.072 457.708 737.282 458.05 742.522C458.506 747.763 459.018 752.15 459.588 755.682C460.271 759.214 460.955 762.176 461.639 764.568V765.252H420.623V764.568ZM816.424 648.016C811.867 647.902 806.17 647.845 799.334 647.845C792.498 647.731 785.035 647.617 776.946 647.503C768.971 647.389 760.597 647.332 751.824 647.332C743.165 647.218 734.677 647.161 726.36 647.161C718.043 647.047 710.125 647.047 702.605 647.161C695.086 647.275 688.535 647.446 682.952 647.674V698.431C682.952 708.115 683.066 716.603 683.294 723.895C683.636 731.072 683.978 737.282 684.319 742.522C684.775 747.763 685.288 752.15 685.857 755.682C686.541 759.214 687.225 762.176 687.908 764.568V765.252H646.893V764.568C647.576 762.176 648.203 759.214 648.772 755.682C649.456 752.15 650.026 747.763 650.481 742.522C650.937 737.282 651.279 731.072 651.507 723.895C651.735 716.603 651.849 708.115 651.849 698.431V587.176C651.849 577.492 651.735 569.061 651.507 561.883C651.279 554.591 650.937 548.325 650.481 543.084C650.026 537.729 649.456 533.286 648.772 529.754C648.203 526.222 647.576 523.26 646.893 520.867V520.184H687.908V520.867C687.225 523.26 686.541 526.222 685.857 529.754C685.288 533.286 684.775 537.729 684.319 543.084C683.978 548.325 683.636 554.591 683.294 561.883C683.066 569.061 682.952 577.492 682.952 587.176V630.926C688.877 631.154 695.599 631.325 703.118 631.438C710.638 631.438 718.499 631.438 726.702 631.438C734.905 631.325 743.222 631.211 751.653 631.097C760.198 630.983 768.401 630.869 776.263 630.755C784.238 630.527 791.644 630.299 798.479 630.071C805.429 629.843 811.411 629.616 816.424 629.388V587.176C816.424 577.492 816.253 569.061 815.911 561.883C815.683 554.591 815.341 548.325 814.886 543.084C814.544 537.729 814.031 533.286 813.348 529.754C812.778 526.222 812.151 523.26 811.468 520.867V520.184H852.483V520.867C851.8 523.26 851.116 526.222 850.433 529.754C849.863 533.286 849.35 537.729 848.895 543.084C848.439 548.325 848.097 554.591 847.869 561.883C847.641 569.061 847.527 577.492 847.527 587.176V698.431C847.527 708.115 847.641 716.603 847.869 723.895C848.097 731.072 848.439 737.282 848.895 742.522C849.35 747.763 849.863 752.15 850.433 755.682C851.116 759.214 851.8 762.176 852.483 764.568V765.252H811.468V764.568C812.151 762.176 812.778 759.214 813.348 755.682C814.031 752.15 814.544 747.763 814.886 742.522C815.341 737.282 815.683 731.072 815.911 723.895C816.253 716.603 816.424 708.115 816.424 698.431V648.016ZM903.069 764.568C903.753 762.176 904.38 759.214 904.949 755.682C905.519 752.15 906.032 747.763 906.487 742.522C906.943 737.282 907.285 731.072 907.513 723.895C907.741 716.603 907.854 708.115 907.854 698.431V587.176C907.854 577.492 907.741 569.061 907.513 561.883C907.285 554.591 906.943 548.325 906.487 543.084C906.032 537.729 905.519 533.286 904.949 529.754C904.38 526.222 903.753 523.26 903.069 520.867V520.184H943.914V520.867C943.23 523.26 942.547 526.222 941.863 529.754C941.294 533.286 940.781 537.729 940.325 543.084C939.983 548.325 939.642 554.591 939.3 561.883C939.072 569.061 938.958 577.492 938.958 587.176V698.431C938.958 708.115 939.072 716.603 939.3 723.895C939.642 731.072 939.983 737.282 940.325 742.522C940.781 747.763 941.294 752.15 941.863 755.682C942.547 759.214 943.23 762.176 943.914 764.568V765.252H903.069V764.568ZM1164.03 765.252V764.568C1164.26 763.999 1164.43 763.144 1164.54 762.005C1164.66 760.866 1164.71 759.84 1164.71 758.929C1164.71 755.397 1164.2 751.523 1163.18 747.308C1162.27 742.978 1160.44 737.623 1157.71 731.243L1137.03 684.759C1130.65 684.531 1122.16 684.417 1111.57 684.417C1100.97 684.417 1089.52 684.417 1077.21 684.417C1068.21 684.417 1059.5 684.417 1051.07 684.417C1042.75 684.417 1035.23 684.531 1028.51 684.759L1008.86 729.876C1007.15 734.091 1005.32 738.706 1003.39 743.719C1001.45 748.732 1000.48 753.802 1000.48 758.929C1000.48 760.41 1000.6 761.663 1000.82 762.688C1001.05 763.6 1001.28 764.227 1001.51 764.568V765.252H966.644V764.568C968.694 762.404 971.258 758.587 974.334 753.118C977.41 747.535 980.771 740.586 984.417 732.269L1082.34 515.057H1096.01L1188.81 723.895C1190.98 728.794 1193.2 733.579 1195.48 738.25C1197.87 742.807 1200.09 746.909 1202.14 750.555C1204.19 754.201 1206.02 757.277 1207.61 759.783C1209.21 762.29 1210.29 763.885 1210.86 764.568V765.252H1164.03ZM1053.29 669.72C1059.9 669.72 1066.68 669.72 1073.63 669.72C1080.58 669.606 1087.35 669.549 1093.96 669.549C1100.68 669.435 1107.12 669.378 1113.27 669.378C1119.43 669.264 1125.01 669.15 1130.02 669.036L1082 560.516L1034.83 669.72H1053.29ZM1287.93 535.223C1274.49 535.223 1262.35 535.849 1251.53 537.103C1240.71 538.242 1231.37 539.495 1223.5 540.862C1214.39 542.571 1206.24 544.451 1199.07 546.502L1204.02 518.816C1205.39 518.93 1207.44 519.044 1210.17 519.158C1212.91 519.272 1215.93 519.386 1219.23 519.5C1222.65 519.614 1226.18 519.728 1229.83 519.842C1233.59 519.842 1237.12 519.899 1240.42 520.013C1243.73 520.013 1246.63 520.07 1249.14 520.184C1251.76 520.184 1253.64 520.184 1254.78 520.184H1352.36C1353.5 520.184 1355.32 520.184 1357.83 520.184C1360.45 520.07 1363.41 520.013 1366.72 520.013C1370.02 519.899 1373.5 519.842 1377.14 519.842C1380.9 519.728 1384.43 519.614 1387.74 519.5C1391.16 519.386 1394.23 519.272 1396.97 519.158C1399.7 519.044 1401.75 518.93 1403.12 518.816L1408.07 546.502C1400.78 544.451 1392.58 542.571 1383.46 540.862C1375.6 539.495 1366.26 538.242 1355.44 537.103C1344.61 535.849 1332.48 535.223 1319.04 535.223V698.431C1319.04 708.115 1319.15 716.603 1319.38 723.895C1319.72 731.072 1320.06 737.282 1320.4 742.522C1320.86 747.763 1321.37 752.15 1321.94 755.682C1322.62 759.214 1323.31 762.176 1323.99 764.568V765.252H1283.15V764.568C1283.83 762.176 1284.46 759.214 1285.03 755.682C1285.6 752.15 1286.11 747.763 1286.57 742.522C1287.02 737.282 1287.36 731.072 1287.59 723.895C1287.82 716.603 1287.93 708.115 1287.93 698.431V535.223ZM1593.67 765.252V764.568C1593.9 763.999 1594.07 763.144 1594.18 762.005C1594.3 760.866 1594.35 759.84 1594.35 758.929C1594.35 755.397 1593.84 751.523 1592.82 747.308C1591.9 742.978 1590.08 737.623 1587.35 731.243L1566.67 684.759C1560.29 684.531 1551.8 684.417 1541.2 684.417C1530.61 684.417 1519.16 684.417 1506.85 684.417C1497.85 684.417 1489.14 684.417 1480.71 684.417C1472.39 684.417 1464.87 684.531 1458.15 684.759L1438.49 729.876C1436.79 734.091 1434.96 738.706 1433.03 743.719C1431.09 748.732 1430.12 753.802 1430.12 758.929C1430.12 760.41 1430.23 761.663 1430.46 762.688C1430.69 763.6 1430.92 764.227 1431.15 764.568V765.252H1396.28V764.568C1398.33 762.404 1400.9 758.587 1403.97 753.118C1407.05 747.535 1410.41 740.586 1414.06 732.269L1511.98 515.057H1525.65L1618.45 723.895C1620.61 728.794 1622.84 733.579 1625.12 738.25C1627.51 742.807 1629.73 746.909 1631.78 750.555C1633.83 754.201 1635.65 757.277 1637.25 759.783C1638.84 762.29 1639.93 763.885 1640.5 764.568V765.252H1593.67ZM1482.93 669.72C1489.54 669.72 1496.31 669.72 1503.26 669.72C1510.21 669.606 1516.99 669.549 1523.6 669.549C1530.32 669.435 1536.76 669.378 1542.91 669.378C1549.07 669.264 1554.65 669.15 1559.66 669.036L1511.64 560.516L1464.47 669.72H1482.93Z" fill="white"/>
</svg>
